<svg width="48" height="48" viewBox="0 0 48 48" fill="none" xmlns="http://www.w3.org/2000/svg">
<path d="M15.3196 8.56203C15.8164 8.06593 16.4461 7.7242 17.1328 7.57807C17.8195 7.43195 18.5338 7.48767 19.1896 7.73853L19.1986 7.74303L26.7286 10.638L26.7406 10.6425C27.5041 10.9396 28.1985 11.3905 28.7806 11.967L45.4306 28.617C45.7698 28.9537 46.039 29.3543 46.2226 29.7956C46.4061 30.2369 46.5004 30.7102 46.5 31.1882C46.4996 31.6662 46.4045 32.1393 46.2201 32.5803C46.0358 33.0213 45.7659 33.4214 45.4261 33.7575L33.4306 45.753C33.0939 46.0923 32.6933 46.3615 32.252 46.545C31.8107 46.7286 31.3373 46.8229 30.8594 46.8225C30.3814 46.822 29.9083 46.7269 29.4673 46.5426C29.0263 46.3583 28.6262 46.0884 28.2901 45.7485L11.6446 29.103C11.0596 28.518 10.6141 27.828 10.3156 27.051L9.48006 24.8805C9.27007 24.8685 9.06007 24.8475 8.85307 24.8175C8.79228 24.8099 8.73212 24.7978 8.67307 24.7815C7.55455 24.5923 6.4906 24.162 5.55508 23.5204C4.61956 22.8788 3.83488 22.0412 3.2555 21.0659C2.67612 20.0906 2.31593 19.001 2.19992 17.8725C2.08392 16.744 2.21488 15.6039 2.58372 14.5311C2.95256 13.4583 3.55044 12.4787 4.33586 11.6601C5.12128 10.8416 6.07542 10.2038 7.13205 9.79101C8.18869 9.37821 9.3225 9.2003 10.4548 9.26964C11.5871 9.33898 12.6907 9.65389 13.6891 10.1925L15.3196 8.56203ZM11.4076 12.474C10.216 12.0957 8.9241 12.1956 7.80494 12.7527C6.68578 13.3097 5.82713 14.2802 5.41059 15.4589C4.99406 16.6376 5.05228 17.9321 5.57295 19.0687C6.09362 20.2052 7.03591 21.0947 8.20057 21.549L7.42057 19.521C7.16802 18.8644 7.11096 18.1487 7.25629 17.4604C7.40163 16.772 7.74313 16.1405 8.23957 15.642L11.4076 12.474ZM11.6431 21.6015C12.8029 21.1763 13.7557 20.3228 14.3056 19.2165C13.9729 18.577 13.8532 17.848 13.9638 17.1357C14.0745 16.4234 14.4097 15.765 14.9206 15.2565C15.235 14.9408 15.6086 14.6903 16.0201 14.5194C16.4316 14.3485 16.8728 14.2605 17.3183 14.2605C17.7639 14.2605 18.2051 14.3485 18.6165 14.5194C19.028 14.6903 19.4017 14.9408 19.7161 15.2565C20.2254 15.7635 20.5601 16.4194 20.6718 17.1293C20.7834 17.8393 20.6661 18.5663 20.337 19.2051C20.0078 19.8439 19.4838 20.3613 18.8409 20.6824C18.198 21.0035 17.4695 21.1116 16.7611 20.991C15.82 22.6234 14.3186 23.8589 12.5356 24.468L13.1146 25.974C13.2576 26.3524 13.4795 26.696 13.7656 26.982L30.4156 43.632L30.4246 43.641C30.4828 43.6993 30.5522 43.7454 30.6285 43.7765C30.7048 43.8077 30.7865 43.8233 30.869 43.8225C30.9514 43.8216 31.0328 43.8044 31.1085 43.7717C31.1841 43.739 31.2525 43.6915 31.3096 43.632L43.3096 31.632L43.3186 31.623C43.3769 31.5648 43.4229 31.4954 43.4541 31.4191C43.4852 31.3428 43.5009 31.2611 43.5 31.1786C43.4992 31.0962 43.4819 31.0148 43.4492 30.9391C43.4165 30.8635 43.369 30.7951 43.3096 30.738L26.6596 14.088C26.3851 13.8135 26.0401 13.593 25.6456 13.4355L18.1306 10.5465L18.1276 10.545C18.0121 10.4984 17.8855 10.4866 17.7634 10.5112C17.6413 10.5357 17.5291 10.5954 17.4406 10.683L10.3606 17.763C10.2745 17.8512 10.2154 17.9622 10.1904 18.0829C10.1654 18.2036 10.1755 18.3289 10.2196 18.444L11.4586 21.6645C11.5205 21.6448 11.582 21.6238 11.6431 21.6015Z" fill="#A31E35"/>
</svg>
