<svg width="20" height="20" viewBox="0 0 20 20" fill="none" xmlns="http://www.w3.org/2000/svg">
<path d="M5.20817 3.95835C4.87665 3.95835 4.55871 4.09005 4.32429 4.32447C4.08987 4.55889 3.95817 4.87683 3.95817 5.20835V14.7917C3.95817 15.1232 4.08987 15.4411 4.32429 15.6756C4.55871 15.91 4.87665 16.0417 5.20817 16.0417H14.7915C15.123 16.0417 15.441 15.91 15.6754 15.6756C15.9098 15.4411 16.0415 15.1232 16.0415 14.7917V11.4584C16.0415 11.2373 16.1293 11.0254 16.2856 10.8691C16.4419 10.7128 16.6538 10.625 16.8748 10.625C17.0959 10.625 17.3078 10.7128 17.4641 10.8691C17.6204 11.0254 17.7082 11.2373 17.7082 11.4584V14.7917C17.7082 15.5652 17.4009 16.3071 16.8539 16.8541C16.3069 17.4011 15.5651 17.7084 14.7915 17.7084H5.20817C4.43462 17.7084 3.69276 17.4011 3.14578 16.8541C2.59879 16.3071 2.2915 15.5652 2.2915 14.7917V5.20835C2.2915 4.43481 2.59879 3.69294 3.14578 3.14596C3.69276 2.59898 4.43462 2.29169 5.20817 2.29169H8.5415C8.76252 2.29169 8.97448 2.37948 9.13076 2.53576C9.28704 2.69204 9.37484 2.90401 9.37484 3.12502C9.37484 3.34603 9.28704 3.558 9.13076 3.71428C8.97448 3.87056 8.76252 3.95835 8.5415 3.95835H5.20817ZM10.6248 3.12502C10.6248 2.90401 10.7126 2.69204 10.8689 2.53576C11.0252 2.37948 11.2372 2.29169 11.4582 2.29169H16.8748C17.0959 2.29169 17.3078 2.37948 17.4641 2.53576C17.6204 2.69204 17.7082 2.90401 17.7082 3.12502V8.54169C17.7082 8.7627 17.6204 8.97466 17.4641 9.13094C17.3078 9.28722 17.0959 9.37502 16.8748 9.37502C16.6538 9.37502 16.4419 9.28722 16.2856 9.13094C16.1293 8.97466 16.0415 8.7627 16.0415 8.54169V5.13669L12.0473 9.13085C11.9705 9.21045 11.8785 9.27393 11.7768 9.31761C11.6752 9.36128 11.5658 9.38427 11.4552 9.38523C11.3445 9.38619 11.2348 9.36511 11.1324 9.3232C11.03 9.2813 10.9369 9.21943 10.8587 9.14118C10.7804 9.06294 10.7186 8.9699 10.6767 8.86748C10.6348 8.76507 10.6137 8.65534 10.6146 8.54469C10.6156 8.43404 10.6386 8.32469 10.6823 8.22302C10.7259 8.12135 10.7894 8.02939 10.869 7.95252L14.8632 3.95835H11.4582C11.2372 3.95835 11.0252 3.87056 10.8689 3.71428C10.7126 3.558 10.6248 3.34603 10.6248 3.12502Z" fill="#979797"/>
</svg>
