<svg width="48" height="48" viewBox="0 0 48 48" fill="none" xmlns="http://www.w3.org/2000/svg">
<g clip-path="url(#clip0_941_1363)">
<path fill-rule="evenodd" clip-rule="evenodd" d="M42.6278 20.924C43.0923 21.3883 43.4607 21.9396 43.712 22.5463C43.9634 23.153 44.0928 23.8033 44.0928 24.46C44.0928 25.1167 43.9634 25.767 43.712 26.3737C43.4607 26.9805 43.0923 27.5317 42.6278 27.996L36.9698 33.652C36.2277 34.3935 35.2712 34.8827 34.2357 35.0505C33.2002 35.2183 32.1381 35.0562 31.1998 34.587C30.2616 34.1179 29.4946 33.3655 29.0075 32.4364C28.5205 31.5073 28.338 30.4486 28.4858 29.41L26.5398 27.464L14.3838 41.492C13.8813 42.0713 13.2649 42.5409 12.573 42.8715C11.8811 43.2022 11.1285 43.3868 10.3621 43.414C9.59573 43.4411 8.83197 43.3102 8.1184 43.0293C7.40483 42.7484 6.75673 42.3236 6.21448 41.7814C5.67223 41.2391 5.24743 40.591 4.96656 39.8775C4.68568 39.1639 4.55473 38.4001 4.58188 37.6337C4.60902 36.8674 4.79368 36.1148 5.12434 35.4229C5.455 34.731 5.92458 34.1145 6.50384 33.612L20.5298 21.454L18.5858 19.51C17.5469 19.6585 16.4876 19.4762 15.5579 18.9891C14.6283 18.502 13.8756 17.7347 13.4063 16.7959C12.937 15.8572 12.7751 14.7946 12.9433 13.7586C13.1116 12.7227 13.6016 11.766 14.3438 11.024L19.9998 5.37002C20.7419 4.62751 21.6988 4.13739 22.735 3.96913C23.7712 3.80087 24.834 3.96301 25.7729 4.43256C26.7118 4.90211 27.4791 5.65526 27.966 6.58525C28.4529 7.51524 28.6348 8.57489 28.4858 9.61402L38.3858 19.512C39.1539 19.402 39.9369 19.4725 40.6729 19.718C41.4089 19.9634 42.0776 20.3771 42.6258 20.926L42.6278 20.924ZM22.1198 17.39L30.6038 25.874L34.8478 21.632L26.3618 13.146L22.1198 17.39ZM39.7998 25.168C39.8928 25.0752 39.9666 24.9649 40.017 24.8436C40.0673 24.7222 40.0933 24.5921 40.0934 24.4607C40.0935 24.3293 40.0677 24.1992 40.0175 24.0778C39.9673 23.9563 39.8937 23.846 39.8008 23.753C39.708 23.66 39.5977 23.5863 39.4764 23.5359C39.355 23.4855 39.2249 23.4596 39.0935 23.4595C38.9622 23.4594 38.832 23.4852 38.7106 23.5354C38.5892 23.5856 38.4788 23.6592 38.3858 23.752L32.7278 29.41C32.6323 29.5023 32.5561 29.6126 32.5037 29.7346C32.4513 29.8566 32.4237 29.9878 32.4226 30.1206C32.4214 30.2534 32.4467 30.3851 32.497 30.508C32.5473 30.6309 32.6216 30.7425 32.7154 30.8364C32.8093 30.9303 32.921 31.0046 33.0439 31.0548C33.1668 31.1051 33.2985 31.1304 33.4312 31.1293C33.564 31.1281 33.6952 31.1005 33.8172 31.0481C33.9392 30.9957 34.0496 30.9195 34.1418 30.824L39.7998 25.168ZM24.2438 9.61002C24.3394 9.51777 24.4155 9.40743 24.4679 9.28542C24.5204 9.16342 24.5479 9.0322 24.5491 8.89942C24.5502 8.76664 24.5249 8.63496 24.4747 8.51206C24.4244 8.38917 24.3501 8.27752 24.2562 8.18362C24.1623 8.08973 24.0507 8.01548 23.9278 7.9652C23.8049 7.91492 23.6732 7.88961 23.5404 7.89077C23.4077 7.89192 23.2764 7.91951 23.1544 7.97192C23.0324 8.02433 22.9221 8.10051 22.8298 8.19602L17.1718 13.854C17.0763 13.9463 17.0001 14.0566 16.9477 14.1786C16.8953 14.3006 16.8677 14.4318 16.8666 14.5646C16.8654 14.6974 16.8907 14.8291 16.941 14.952C16.9913 15.0749 17.0656 15.1865 17.1594 15.2804C17.2533 15.3743 17.365 15.4486 17.4879 15.4988C17.6108 15.5491 17.7425 15.5744 17.8752 15.5733C18.008 15.5721 18.1392 15.5445 18.2612 15.4921C18.3832 15.4397 18.4936 15.3635 18.5858 15.268L24.2438 9.61002ZM11.3598 38.872L23.3758 25.008L22.9878 24.618L9.12184 36.634C8.96214 36.7781 8.83343 36.9532 8.74353 37.1487C8.65364 37.3441 8.60444 37.5558 8.59893 37.7708C8.59342 37.9859 8.63172 38.1998 8.71149 38.3996C8.79126 38.5993 8.91083 38.7808 9.06294 38.9329C9.21505 39.085 9.39651 39.2046 9.59629 39.2844C9.79607 39.3641 10.01 39.4024 10.225 39.3969C10.4401 39.3914 10.6518 39.3422 10.8472 39.2523C11.0426 39.1624 11.2177 39.0337 11.3618 38.874L11.3598 38.872Z" fill="#A31E35"/>
</g>
<defs>
<clipPath id="clip0_941_1363">
<rect width="48" height="48" fill="white" transform="matrix(-1 0 0 1 48 0)"/>
</clipPath>
</defs>
</svg>
