<svg width="24" height="24" viewBox="0 0 24 24" fill="none" xmlns="http://www.w3.org/2000/svg">
<path d="M7 11H17V13H7V11Z" fill="#979797"/>
<path d="M13 7L13 17L11 17L11 7L13 7Z" fill="#979797"/>
<path d="M12 2.00513C9.43126 1.9189 6.93541 2.923 5.06048 4.79696C3.18556 6.67092 2.08484 9.26155 2 12C2.08484 14.7385 3.18556 17.3291 5.06048 19.203C6.93541 21.077 9.43126 22.0811 12 21.9949C14.5687 22.0811 17.0646 21.077 18.9395 19.203C20.8144 17.3291 21.9152 14.7385 22 12C21.9152 9.26155 20.8144 6.67092 18.9395 4.79696C17.0646 2.923 14.5687 1.9189 12 2.00513ZM12 20.3291C9.84646 20.412 7.74976 19.5823 6.16855 18.0214C4.58734 16.4605 3.65033 14.2955 3.5625 12C3.65033 9.70448 4.58734 7.53948 6.16855 5.97859C7.74976 4.41771 9.84646 3.58799 12 3.67094C14.1535 3.58799 16.2502 4.41771 17.8314 5.97859C19.4127 7.53948 20.3497 9.70448 20.4375 12C20.3497 14.2955 19.4127 16.4605 17.8314 18.0214C16.2502 19.5823 14.1535 20.412 12 20.3291Z" fill="#979797"/>
</svg>
