<svg width="21" height="22" viewBox="0 0 21 22" fill="none" xmlns="http://www.w3.org/2000/svg">
<path d="M5.25 19.75C4.76875 19.75 4.35663 19.5785 4.01363 19.2355C3.67063 18.8925 3.49942 18.4807 3.5 18V9.25C3.5 8.76875 3.6715 8.35663 4.0145 8.01363C4.3575 7.67063 4.76933 7.49942 5.25 7.5H6.125V5.75C6.125 4.53958 6.55171 3.50767 7.40513 2.65425C8.25854 1.80083 9.29017 1.37442 10.5 1.375C11.7104 1.375 12.7423 1.80171 13.5958 2.65513C14.4492 3.50854 14.8756 4.54017 14.875 5.75V7.5H15.75C16.2313 7.5 16.6434 7.6715 16.9864 8.0145C17.3294 8.3575 17.5006 8.76933 17.5 9.25V18C17.5 18.4813 17.3285 18.8934 16.9855 19.2364C16.6425 19.5794 16.2307 19.7506 15.75 19.75H5.25ZM5.25 18H15.75V9.25H5.25V18ZM10.5 15.375C10.9813 15.375 11.3934 15.2035 11.7364 14.8605C12.0794 14.5175 12.2506 14.1057 12.25 13.625C12.25 13.1438 12.0785 12.7316 11.7355 12.3886C11.3925 12.0456 10.9807 11.8744 10.5 11.875C10.0188 11.875 9.60663 12.0465 9.26363 12.3895C8.92063 12.7325 8.74942 13.1443 8.75 13.625C8.75 14.1063 8.9215 14.5184 9.2645 14.8614C9.6075 15.2044 10.0193 15.3756 10.5 15.375ZM7.875 7.5H13.125V5.75C13.125 5.02083 12.8698 4.40104 12.3594 3.89063C11.849 3.38021 11.2292 3.125 10.5 3.125C9.77083 3.125 9.15104 3.38021 8.64063 3.89063C8.13021 4.40104 7.875 5.02083 7.875 5.75V7.5Z" fill="#979797"/>
</svg>
