<svg width="48" height="48" viewBox="0 0 48 48" fill="none" xmlns="http://www.w3.org/2000/svg">
<path d="M15.5981 32.7C15.7558 32.8185 15.9352 32.9047 16.1262 32.9538C16.3172 33.0028 16.516 33.0137 16.7113 32.9859C16.9065 32.958 17.0943 32.8919 17.264 32.7914C17.4336 32.6908 17.5818 32.5579 17.7 32.4C18.6082 31.1891 19.7858 30.2063 21.1397 29.5293C22.4935 28.8524 23.9864 28.5 25.5 28.5C27.0136 28.5 28.5065 28.8524 29.8603 29.5293C31.2142 30.2063 32.3918 31.1891 33.3 32.4C33.4182 32.5576 33.5663 32.6903 33.7358 32.7907C33.9053 32.8911 34.0929 32.9571 34.2879 32.9849C34.4829 33.0128 34.6814 33.002 34.8723 32.9531C35.0631 32.9042 35.2424 32.8182 35.4 32.7C35.5576 32.5818 35.6903 32.4337 35.7907 32.2642C35.8911 32.0947 35.9571 31.9071 35.9849 31.7121C36.0128 31.5171 36.002 31.3186 35.9531 31.1277C35.9042 30.9369 35.8182 30.7576 35.7 30.6C34.3718 28.8192 32.6006 27.4171 30.5625 26.5331C31.6794 25.5134 32.4619 24.1798 32.8074 22.7074C33.1528 21.2349 33.045 19.6925 32.4981 18.2824C31.9513 16.8723 30.9909 15.6606 29.743 14.8061C28.4951 13.9516 27.018 13.4944 25.5056 13.4944C23.9932 13.4944 22.5162 13.9516 21.2683 14.8061C20.0204 15.6606 19.06 16.8723 18.5131 18.2824C17.9662 19.6925 17.8584 21.2349 18.2039 22.7074C18.5493 24.1798 19.3318 25.5134 20.4487 26.5331C18.4066 27.4155 16.6313 28.8177 15.3 30.6C15.0611 30.918 14.9583 31.3179 15.0142 31.7117C15.0701 32.1055 15.2802 32.461 15.5981 32.7ZM21 21C21 20.11 21.2639 19.24 21.7584 18.4999C22.2529 17.7599 22.9557 17.1831 23.7779 16.8425C24.6002 16.5019 25.505 16.4128 26.3779 16.5865C27.2508 16.7601 28.0526 17.1887 28.682 17.818C29.3113 18.4474 29.7399 19.2492 29.9135 20.1221C30.0872 20.995 29.9981 21.8998 29.6575 22.7221C29.3169 23.5443 28.7401 24.2471 28.0001 24.7416C27.26 25.2361 26.39 25.5 25.5 25.5C24.3065 25.5 23.1619 25.0259 22.318 24.182C21.4741 23.3381 21 22.1935 21 21ZM39 4.5H12C11.2044 4.5 10.4413 4.81607 9.87868 5.37868C9.31607 5.94129 9 6.70435 9 7.5V12H6C5.60218 12 5.22064 12.158 4.93934 12.4393C4.65804 12.7206 4.5 13.1022 4.5 13.5C4.5 13.8978 4.65804 14.2794 4.93934 14.5607C5.22064 14.842 5.60218 15 6 15H9V22.5H6C5.60218 22.5 5.22064 22.658 4.93934 22.9393C4.65804 23.2206 4.5 23.6022 4.5 24C4.5 24.3978 4.65804 24.7794 4.93934 25.0607C5.22064 25.342 5.60218 25.5 6 25.5H9V33H6C5.60218 33 5.22064 33.158 4.93934 33.4393C4.65804 33.7206 4.5 34.1022 4.5 34.5C4.5 34.8978 4.65804 35.2794 4.93934 35.5607C5.22064 35.842 5.60218 36 6 36H9V40.5C9 41.2957 9.31607 42.0587 9.87868 42.6213C10.4413 43.1839 11.2044 43.5 12 43.5H39C39.7957 43.5 40.5587 43.1839 41.1213 42.6213C41.6839 42.0587 42 41.2957 42 40.5V7.5C42 6.70435 41.6839 5.94129 41.1213 5.37868C40.5587 4.81607 39.7957 4.5 39 4.5ZM39 40.5H12V7.5H39V40.5Z" fill="#A31E35"/>
</svg>
