<svg width="20" height="20" viewBox="0 0 20 20" fill="none" xmlns="http://www.w3.org/2000/svg">
<path d="M17.4668 17.4667L13.2001 13.2M8.93345 15.3333C8.09299 15.3333 7.26076 15.1678 6.48427 14.8462C5.70779 14.5245 5.00226 14.0531 4.40796 13.4588C3.81367 12.8645 3.34225 12.159 3.02062 11.3825C2.69899 10.606 2.53345 9.77379 2.53345 8.93333C2.53345 8.09287 2.69899 7.26064 3.02062 6.48415C3.34225 5.70767 3.81367 5.00214 4.40796 4.40784C5.00226 3.81355 5.70779 3.34213 6.48427 3.0205C7.26076 2.69887 8.09299 2.53333 8.93345 2.53333C10.6308 2.53333 12.2587 3.20761 13.4589 4.40784C14.6592 5.60807 15.3334 7.23594 15.3334 8.93333C15.3334 10.6307 14.6592 12.2586 13.4589 13.4588C12.2587 14.659 10.6308 15.3333 8.93345 15.3333Z" stroke="white" stroke-width="1.5"/>
</svg>
