<svg width="20" height="20" viewBox="0 0 20 20" fill="none" xmlns="http://www.w3.org/2000/svg">
<path d="M18.6614 8.05833C18.6087 7.9059 18.513 7.77202 18.3858 7.67292C18.2586 7.57381 18.1054 7.51374 17.9447 7.5L13.203 6.80833L11.078 2.5C11.0098 2.35911 10.9032 2.24028 10.7706 2.15714C10.638 2.074 10.4846 2.02991 10.328 2.02991C10.1715 2.02991 10.0181 2.074 9.88545 2.15714C9.7528 2.24028 9.64626 2.35911 9.57802 2.5L7.45302 6.8L2.71136 7.5C2.55713 7.52192 2.41213 7.58663 2.29282 7.6868C2.17351 7.78696 2.08466 7.91856 2.03636 8.06667C1.99215 8.21139 1.98818 8.36543 2.02488 8.51224C2.06158 8.65906 2.13757 8.7931 2.24469 8.9L5.68636 12.2333L4.85302 16.9667C4.81938 17.1237 4.83182 17.2871 4.88885 17.4372C4.94587 17.5873 5.04506 17.7178 5.17447 17.8128C5.30388 17.9079 5.458 17.9636 5.6183 17.9731C5.7786 17.9827 5.93824 17.9457 6.07802 17.8667L10.328 15.6417L14.578 17.8667C14.695 17.9326 14.8271 17.9671 14.9614 17.9667C15.1379 17.9673 15.31 17.9119 15.453 17.8083C15.5823 17.7157 15.6824 17.588 15.7415 17.4404C15.8005 17.2927 15.8161 17.1312 15.7864 16.975L14.953 12.2417L18.3947 8.90833C18.515 8.8064 18.6039 8.67242 18.6511 8.52196C18.6983 8.37149 18.7019 8.21073 18.6614 8.05833ZM13.5364 11.3917C13.4399 11.4853 13.3675 11.601 13.3255 11.7287C13.2834 11.8564 13.2728 11.9923 13.2947 12.125L13.8947 15.625L10.7614 13.9583C10.6396 13.8981 10.5056 13.8668 10.3697 13.8668C10.2338 13.8668 10.0998 13.8981 9.97802 13.9583L6.84469 15.625L7.44469 12.125C7.46656 11.9923 7.456 11.8564 7.41392 11.7287C7.37183 11.601 7.29948 11.4853 7.20302 11.3917L4.70302 8.89167L8.21136 8.38333C8.34636 8.36455 8.47469 8.31295 8.58511 8.23304C8.69552 8.15313 8.78466 8.04736 8.84469 7.925L10.328 4.75L11.8947 7.93333C11.9547 8.0557 12.0439 8.16147 12.1543 8.24138C12.2647 8.32128 12.393 8.37289 12.528 8.39166L16.0364 8.9L13.5364 11.3917Z" fill="white"/>
</svg>
