<svg width="136" height="20" viewBox="0 0 136 20" fill="none" xmlns="http://www.w3.org/2000/svg">
<path d="M5.67073 19.5995L0 0.374105H3.40782L7.27362 14.2591L11.1259 0.400806L14.5338 0.374105L18.3996 14.2591L22.2519 0.374105H25.6597L20.0024 19.5995H16.7967L12.8231 5.9281L8.87651 19.5995H5.67073Z" fill="#1E1E1E"/>
<path d="M27.3996 19.5995V0.374105H30.6458V8.46478H39.8321V0.374105H43.0648V19.5995H39.8321V11.4821H30.6458V19.5995H27.3996Z" fill="#1E1E1E"/>
<path d="M46.6526 19.5995V0.374105H49.8988V19.5995H46.6526Z" fill="#1E1E1E"/>
<path d="M60.6549 20C59.2361 20 57.9565 19.7552 56.8161 19.2657C55.6846 18.7762 54.7507 18.0775 54.0144 17.1696C53.287 16.2528 52.8246 15.167 52.627 13.912L55.9944 13.4046C56.2818 14.5439 56.87 15.4251 57.759 16.0481C58.6569 16.6712 59.6896 16.9827 60.857 16.9827C61.5484 16.9827 62.1995 16.8759 62.8101 16.6623C63.4207 16.4486 63.9146 16.1371 64.2917 15.7277C64.6779 15.3183 64.8709 14.8154 64.8709 14.219C64.8709 13.952 64.826 13.7073 64.7362 13.4847C64.6464 13.2533 64.5117 13.0486 64.3322 12.8706C64.1615 12.6926 63.937 12.5324 63.6587 12.39C63.3893 12.2386 63.075 12.1096 62.7158 12.0028L57.7051 10.5342C57.2741 10.4096 56.8071 10.2449 56.3042 10.0402C55.8103 9.82658 55.3389 9.53731 54.8899 9.17238C54.4499 8.79855 54.0862 8.32682 53.7989 7.75718C53.5205 7.17864 53.3813 6.46659 53.3813 5.62103C53.3813 4.38384 53.6956 3.34692 54.3242 2.51026C54.9618 1.6647 55.8148 1.03275 56.8834 0.614422C57.961 0.196092 59.1553 -0.00862288 60.4664 0.00027817C61.7954 0.00917816 62.9807 0.236144 64.0224 0.681177C65.064 1.11731 65.935 1.7537 66.6355 2.59036C67.3359 3.42702 67.8298 4.43724 68.1171 5.62103L64.6285 6.22182C64.4848 5.54537 64.2064 4.97128 63.7934 4.49955C63.3893 4.01891 62.8909 3.65399 62.2982 3.40477C61.7146 3.15555 61.0905 3.02204 60.426 3.00424C59.7794 2.99534 59.1778 3.09325 58.621 3.29796C58.0733 3.49378 57.6288 3.7786 57.2875 4.15242C56.9553 4.52625 56.7891 4.96238 56.7891 5.46082C56.7891 5.93255 56.9328 6.31973 57.2202 6.62235C57.5075 6.91607 57.8622 7.15194 58.2843 7.32995C58.7153 7.49906 59.1508 7.64147 59.5908 7.75718L63.066 8.71845C63.5419 8.84306 64.0762 9.01217 64.6689 9.22578C65.2616 9.4394 65.8318 9.73757 66.3795 10.1203C66.9273 10.503 67.3763 11.0059 67.7265 11.629C68.0857 12.252 68.2653 13.0442 68.2653 14.0054C68.2653 15.0023 68.0543 15.879 67.6322 16.6356C67.2192 17.3832 66.6579 18.0063 65.9485 18.5047C65.2391 19.0031 64.4264 19.377 63.5105 19.6262C62.6035 19.8754 61.6517 20 60.6549 20Z" fill="#1E1E1E"/>
<path d="M70.7229 19.5995V0.374105H73.9691V9.29254L81.7141 0.374105H85.7011L77.3634 9.79988L86.2669 19.5995H82.1451L73.9691 10.6276V19.5995H70.7229Z" fill="#1E1E1E"/>
<path d="M92.4214 19.5995V11.7224L85.8213 0.374105H89.6063L94.0648 8.03755L98.5097 0.374105H102.295L95.708 11.7224V19.5995H92.4214Z" fill="#1E1E1E"/>
<path d="M109.274 19.5995V11.7224L102.674 0.374105H106.459L110.917 8.03755L115.362 0.374105H119.147L112.561 11.7224V19.5995H109.274Z" fill="#1E1E1E"/>
<path d="M126.127 19.5995V11.7224L119.527 0.374105H123.312L127.77 8.03755L132.215 0.374105H136L129.413 11.7224V19.5995H126.127Z" fill="#1E1E1E"/>
</svg>
